<?xml version="1.0" encoding="utf-8"?>
<svg xmlns="http://www.w3.org/2000/svg" xmlns:xlink="http://www.w3.org/1999/xlink" width="600" height="400" viewBox="0 0 2400 1600">
<defs>
  <clipPath id="clip450">
    <rect x="0" y="0" width="2400" height="1600"/>
  </clipPath>
</defs>
<defs>
  <clipPath id="clip451">
    <rect x="480" y="0" width="1681" height="1600"/>
  </clipPath>
</defs>
<defs>
  <clipPath id="clip452">
    <rect x="276" y="47" width="2077" height="1377"/>
  </clipPath>
</defs>
<polyline clip-path="url(#clip452)" style="stroke:#000000; stroke-linecap:round; stroke-linejoin:round; stroke-width:2; stroke-opacity:0.1; fill:none" points="296.459,1423.18 296.459,47.2441 "/>
<polyline clip-path="url(#clip452)" style="stroke:#000000; stroke-linecap:round; stroke-linejoin:round; stroke-width:2; stroke-opacity:0.1; fill:none" points="688.135,1423.18 688.135,47.2441 "/>
<polyline clip-path="url(#clip452)" style="stroke:#000000; stroke-linecap:round; stroke-linejoin:round; stroke-width:2; stroke-opacity:0.1; fill:none" points="1079.81,1423.18 1079.81,47.2441 "/>
<polyline clip-path="url(#clip452)" style="stroke:#000000; stroke-linecap:round; stroke-linejoin:round; stroke-width:2; stroke-opacity:0.1; fill:none" points="1471.49,1423.18 1471.49,47.2441 "/>
<polyline clip-path="url(#clip452)" style="stroke:#000000; stroke-linecap:round; stroke-linejoin:round; stroke-width:2; stroke-opacity:0.1; fill:none" points="1863.16,1423.18 1863.16,47.2441 "/>
<polyline clip-path="url(#clip452)" style="stroke:#000000; stroke-linecap:round; stroke-linejoin:round; stroke-width:2; stroke-opacity:0.1; fill:none" points="2254.84,1423.18 2254.84,47.2441 "/>
<polyline clip-path="url(#clip452)" style="stroke:#000000; stroke-linecap:round; stroke-linejoin:round; stroke-width:2; stroke-opacity:0.1; fill:none" points="276.876,937.555 2352.76,937.555 "/>
<polyline clip-path="url(#clip452)" style="stroke:#000000; stroke-linecap:round; stroke-linejoin:round; stroke-width:2; stroke-opacity:0.1; fill:none" points="276.876,128.181 2352.76,128.181 "/>
<polyline clip-path="url(#clip450)" style="stroke:#000000; stroke-linecap:round; stroke-linejoin:round; stroke-width:4; stroke-opacity:1; fill:none" points="276.876,1423.18 2352.76,1423.18 "/>
<polyline clip-path="url(#clip450)" style="stroke:#000000; stroke-linecap:round; stroke-linejoin:round; stroke-width:4; stroke-opacity:1; fill:none" points="296.459,1423.18 296.459,1404.28 "/>
<polyline clip-path="url(#clip450)" style="stroke:#000000; stroke-linecap:round; stroke-linejoin:round; stroke-width:4; stroke-opacity:1; fill:none" points="688.135,1423.18 688.135,1404.28 "/>
<polyline clip-path="url(#clip450)" style="stroke:#000000; stroke-linecap:round; stroke-linejoin:round; stroke-width:4; stroke-opacity:1; fill:none" points="1079.81,1423.18 1079.81,1404.28 "/>
<polyline clip-path="url(#clip450)" style="stroke:#000000; stroke-linecap:round; stroke-linejoin:round; stroke-width:4; stroke-opacity:1; fill:none" points="1471.49,1423.18 1471.49,1404.28 "/>
<polyline clip-path="url(#clip450)" style="stroke:#000000; stroke-linecap:round; stroke-linejoin:round; stroke-width:4; stroke-opacity:1; fill:none" points="1863.16,1423.18 1863.16,1404.28 "/>
<polyline clip-path="url(#clip450)" style="stroke:#000000; stroke-linecap:round; stroke-linejoin:round; stroke-width:4; stroke-opacity:1; fill:none" points="2254.84,1423.18 2254.84,1404.28 "/>
<path clip-path="url(#clip450)" d="M296.459 1454.1 Q292.848 1454.1 291.02 1457.66 Q289.214 1461.2 289.214 1468.33 Q289.214 1475.44 291.02 1479.01 Q292.848 1482.55 296.459 1482.55 Q300.094 1482.55 301.899 1479.01 Q303.728 1475.44 303.728 1468.33 Q303.728 1461.2 301.899 1457.66 Q300.094 1454.1 296.459 1454.1 M296.459 1450.39 Q302.269 1450.39 305.325 1455 Q308.404 1459.58 308.404 1468.33 Q308.404 1477.06 305.325 1481.67 Q302.269 1486.25 296.459 1486.25 Q290.649 1486.25 287.57 1481.67 Q284.515 1477.06 284.515 1468.33 Q284.515 1459.58 287.57 1455 Q290.649 1450.39 296.459 1450.39 Z" fill="#000000" fill-rule="nonzero" fill-opacity="1" /><path clip-path="url(#clip450)" d="M662.822 1481.64 L670.461 1481.64 L670.461 1455.28 L662.151 1456.95 L662.151 1452.69 L670.415 1451.02 L675.091 1451.02 L675.091 1481.64 L682.73 1481.64 L682.73 1485.58 L662.822 1485.58 L662.822 1481.64 Z" fill="#000000" fill-rule="nonzero" fill-opacity="1" /><path clip-path="url(#clip450)" d="M702.174 1454.1 Q698.563 1454.1 696.734 1457.66 Q694.929 1461.2 694.929 1468.33 Q694.929 1475.44 696.734 1479.01 Q698.563 1482.55 702.174 1482.55 Q705.808 1482.55 707.614 1479.01 Q709.443 1475.44 709.443 1468.33 Q709.443 1461.2 707.614 1457.66 Q705.808 1454.1 702.174 1454.1 M702.174 1450.39 Q707.984 1450.39 711.04 1455 Q714.118 1459.58 714.118 1468.33 Q714.118 1477.06 711.04 1481.67 Q707.984 1486.25 702.174 1486.25 Q696.364 1486.25 693.285 1481.67 Q690.23 1477.06 690.23 1468.33 Q690.23 1459.58 693.285 1455 Q696.364 1450.39 702.174 1450.39 Z" fill="#000000" fill-rule="nonzero" fill-opacity="1" /><path clip-path="url(#clip450)" d="M1058.58 1481.64 L1074.9 1481.64 L1074.9 1485.58 L1052.96 1485.58 L1052.96 1481.64 Q1055.62 1478.89 1060.2 1474.26 Q1064.81 1469.61 1065.99 1468.27 Q1068.24 1465.74 1069.12 1464.01 Q1070.02 1462.25 1070.02 1460.56 Q1070.02 1457.8 1068.07 1456.07 Q1066.15 1454.33 1063.05 1454.33 Q1060.85 1454.33 1058.4 1455.09 Q1055.97 1455.86 1053.19 1457.41 L1053.19 1452.69 Q1056.01 1451.55 1058.47 1450.97 Q1060.92 1450.39 1062.96 1450.39 Q1068.33 1450.39 1071.52 1453.08 Q1074.72 1455.77 1074.72 1460.26 Q1074.72 1462.39 1073.91 1464.31 Q1073.12 1466.2 1071.01 1468.8 Q1070.44 1469.47 1067.33 1472.69 Q1064.23 1475.88 1058.58 1481.64 Z" fill="#000000" fill-rule="nonzero" fill-opacity="1" /><path clip-path="url(#clip450)" d="M1094.72 1454.1 Q1091.11 1454.1 1089.28 1457.66 Q1087.47 1461.2 1087.47 1468.33 Q1087.47 1475.44 1089.28 1479.01 Q1091.11 1482.55 1094.72 1482.55 Q1098.35 1482.55 1100.16 1479.01 Q1101.99 1475.44 1101.99 1468.33 Q1101.99 1461.2 1100.16 1457.66 Q1098.35 1454.1 1094.72 1454.1 M1094.72 1450.39 Q1100.53 1450.39 1103.58 1455 Q1106.66 1459.58 1106.66 1468.33 Q1106.66 1477.06 1103.58 1481.67 Q1100.53 1486.25 1094.72 1486.25 Q1088.91 1486.25 1085.83 1481.67 Q1082.77 1477.06 1082.77 1468.33 Q1082.77 1459.58 1085.83 1455 Q1088.91 1450.39 1094.72 1450.39 Z" fill="#000000" fill-rule="nonzero" fill-opacity="1" /><path clip-path="url(#clip450)" d="M1460.33 1466.95 Q1463.69 1467.66 1465.56 1469.93 Q1467.46 1472.2 1467.46 1475.53 Q1467.46 1480.65 1463.94 1483.45 Q1460.42 1486.25 1453.94 1486.25 Q1451.76 1486.25 1449.45 1485.81 Q1447.16 1485.39 1444.7 1484.54 L1444.7 1480.02 Q1446.65 1481.16 1448.96 1481.74 Q1451.28 1482.32 1453.8 1482.32 Q1458.2 1482.32 1460.49 1480.58 Q1462.81 1478.84 1462.81 1475.53 Q1462.81 1472.48 1460.65 1470.77 Q1458.52 1469.03 1454.7 1469.03 L1450.68 1469.03 L1450.68 1465.19 L1454.89 1465.19 Q1458.34 1465.19 1460.17 1463.82 Q1462 1462.43 1462 1459.84 Q1462 1457.18 1460.1 1455.77 Q1458.22 1454.33 1454.7 1454.33 Q1452.78 1454.33 1450.58 1454.75 Q1448.38 1455.16 1445.75 1456.04 L1445.75 1451.88 Q1448.41 1451.14 1450.72 1450.77 Q1453.06 1450.39 1455.12 1450.39 Q1460.44 1450.39 1463.55 1452.83 Q1466.65 1455.23 1466.65 1459.35 Q1466.65 1462.22 1465 1464.21 Q1463.36 1466.18 1460.33 1466.95 Z" fill="#000000" fill-rule="nonzero" fill-opacity="1" /><path clip-path="url(#clip450)" d="M1486.32 1454.1 Q1482.71 1454.1 1480.88 1457.66 Q1479.08 1461.2 1479.08 1468.33 Q1479.08 1475.44 1480.88 1479.01 Q1482.71 1482.55 1486.32 1482.55 Q1489.96 1482.55 1491.76 1479.01 Q1493.59 1475.44 1493.59 1468.33 Q1493.59 1461.2 1491.76 1457.66 Q1489.96 1454.1 1486.32 1454.1 M1486.32 1450.39 Q1492.13 1450.39 1495.19 1455 Q1498.27 1459.58 1498.27 1468.33 Q1498.27 1477.06 1495.19 1481.67 Q1492.13 1486.25 1486.32 1486.25 Q1480.51 1486.25 1477.43 1481.67 Q1474.38 1477.06 1474.38 1468.33 Q1474.38 1459.58 1477.43 1455 Q1480.51 1450.39 1486.32 1450.39 Z" fill="#000000" fill-rule="nonzero" fill-opacity="1" /><path clip-path="url(#clip450)" d="M1851.33 1455.09 L1839.53 1473.54 L1851.33 1473.54 L1851.33 1455.09 M1850.11 1451.02 L1855.99 1451.02 L1855.99 1473.54 L1860.92 1473.54 L1860.92 1477.43 L1855.99 1477.43 L1855.99 1485.58 L1851.33 1485.58 L1851.33 1477.43 L1835.73 1477.43 L1835.73 1472.92 L1850.11 1451.02 Z" fill="#000000" fill-rule="nonzero" fill-opacity="1" /><path clip-path="url(#clip450)" d="M1878.65 1454.1 Q1875.04 1454.1 1873.21 1457.66 Q1871.4 1461.2 1871.4 1468.33 Q1871.4 1475.44 1873.21 1479.01 Q1875.04 1482.55 1878.65 1482.55 Q1882.28 1482.55 1884.09 1479.01 Q1885.92 1475.44 1885.92 1468.33 Q1885.92 1461.2 1884.09 1457.66 Q1882.28 1454.1 1878.65 1454.1 M1878.65 1450.39 Q1884.46 1450.39 1887.51 1455 Q1890.59 1459.58 1890.59 1468.33 Q1890.59 1477.06 1887.51 1481.67 Q1884.46 1486.25 1878.65 1486.25 Q1872.84 1486.25 1869.76 1481.67 Q1866.7 1477.06 1866.7 1468.33 Q1866.7 1459.58 1869.76 1455 Q1872.84 1450.39 1878.65 1450.39 Z" fill="#000000" fill-rule="nonzero" fill-opacity="1" /><path clip-path="url(#clip450)" d="M2229.54 1451.02 L2247.89 1451.02 L2247.89 1454.96 L2233.82 1454.96 L2233.82 1463.43 Q2234.84 1463.08 2235.86 1462.92 Q2236.87 1462.73 2237.89 1462.73 Q2243.68 1462.73 2247.06 1465.9 Q2250.44 1469.08 2250.44 1474.49 Q2250.44 1480.07 2246.97 1483.17 Q2243.49 1486.25 2237.18 1486.25 Q2235 1486.25 2232.73 1485.88 Q2230.49 1485.51 2228.08 1484.77 L2228.08 1480.07 Q2230.16 1481.2 2232.38 1481.76 Q2234.61 1482.32 2237.08 1482.32 Q2241.09 1482.32 2243.43 1480.21 Q2245.76 1478.1 2245.76 1474.49 Q2245.76 1470.88 2243.43 1468.77 Q2241.09 1466.67 2237.08 1466.67 Q2235.21 1466.67 2233.33 1467.08 Q2231.48 1467.5 2229.54 1468.38 L2229.54 1451.02 Z" fill="#000000" fill-rule="nonzero" fill-opacity="1" /><path clip-path="url(#clip450)" d="M2269.65 1454.1 Q2266.04 1454.1 2264.21 1457.66 Q2262.41 1461.2 2262.41 1468.33 Q2262.41 1475.44 2264.21 1479.01 Q2266.04 1482.55 2269.65 1482.55 Q2273.29 1482.55 2275.09 1479.01 Q2276.92 1475.44 2276.92 1468.33 Q2276.92 1461.2 2275.09 1457.66 Q2273.29 1454.1 2269.65 1454.1 M2269.65 1450.39 Q2275.46 1450.39 2278.52 1455 Q2281.6 1459.58 2281.6 1468.33 Q2281.6 1477.06 2278.52 1481.67 Q2275.46 1486.25 2269.65 1486.25 Q2263.84 1486.25 2260.76 1481.67 Q2257.71 1477.06 2257.71 1468.33 Q2257.71 1459.58 2260.76 1455 Q2263.84 1450.39 2269.65 1450.39 Z" fill="#000000" fill-rule="nonzero" fill-opacity="1" /><path clip-path="url(#clip450)" d="M1164.81 1532.4 L1170.66 1532.4 L1170.66 1568.04 L1164.81 1568.04 L1164.81 1532.4 M1164.81 1518.52 L1170.66 1518.52 L1170.66 1525.93 L1164.81 1525.93 L1164.81 1518.52 Z" fill="#000000" fill-rule="nonzero" fill-opacity="1" /><path clip-path="url(#clip450)" d="M1188.71 1522.27 L1188.71 1532.4 L1200.77 1532.4 L1200.77 1536.95 L1188.71 1536.95 L1188.71 1556.3 Q1188.71 1560.66 1189.89 1561.9 Q1191.1 1563.14 1194.76 1563.14 L1200.77 1563.14 L1200.77 1568.04 L1194.76 1568.04 Q1187.98 1568.04 1185.4 1565.53 Q1182.82 1562.98 1182.82 1556.3 L1182.82 1536.95 L1178.53 1536.95 L1178.53 1532.4 L1182.82 1532.4 L1182.82 1522.27 L1188.71 1522.27 Z" fill="#000000" fill-rule="nonzero" fill-opacity="1" /><path clip-path="url(#clip450)" d="M1238.97 1548.76 L1238.97 1551.62 L1212.04 1551.62 Q1212.42 1557.67 1215.67 1560.85 Q1218.95 1564 1224.77 1564 Q1228.15 1564 1231.3 1563.17 Q1234.48 1562.35 1237.6 1560.69 L1237.6 1566.23 Q1234.45 1567.57 1231.14 1568.27 Q1227.83 1568.97 1224.42 1568.97 Q1215.89 1568.97 1210.9 1564 Q1205.93 1559.04 1205.93 1550.57 Q1205.93 1541.82 1210.64 1536.69 Q1215.38 1531.54 1223.4 1531.54 Q1230.6 1531.54 1234.77 1536.18 Q1238.97 1540.8 1238.97 1548.76 M1233.11 1547.04 Q1233.05 1542.23 1230.41 1539.37 Q1227.8 1536.5 1223.47 1536.5 Q1218.57 1536.5 1215.61 1539.27 Q1212.68 1542.04 1212.23 1547.07 L1233.11 1547.04 Z" fill="#000000" fill-rule="nonzero" fill-opacity="1" /><path clip-path="url(#clip450)" d="M1269.24 1537.87 Q1268.25 1537.3 1267.07 1537.04 Q1265.93 1536.76 1264.53 1536.76 Q1259.56 1536.76 1256.89 1540 Q1254.25 1543.22 1254.25 1549.27 L1254.25 1568.04 L1248.36 1568.04 L1248.36 1532.4 L1254.25 1532.4 L1254.25 1537.93 Q1256.09 1534.69 1259.05 1533.13 Q1262.01 1531.54 1266.25 1531.54 Q1266.85 1531.54 1267.58 1531.63 Q1268.31 1531.7 1269.21 1531.85 L1269.24 1537.87 Z" fill="#000000" fill-rule="nonzero" fill-opacity="1" /><path clip-path="url(#clip450)" d="M1291.58 1550.12 Q1284.48 1550.12 1281.75 1551.75 Q1279.01 1553.37 1279.01 1557.29 Q1279.01 1560.4 1281.05 1562.25 Q1283.11 1564.07 1286.65 1564.07 Q1291.52 1564.07 1294.45 1560.63 Q1297.41 1557.16 1297.41 1551.43 L1297.41 1550.12 L1291.58 1550.12 M1303.26 1547.71 L1303.26 1568.04 L1297.41 1568.04 L1297.41 1562.63 Q1295.4 1565.88 1292.41 1567.44 Q1289.42 1568.97 1285.09 1568.97 Q1279.61 1568.97 1276.37 1565.91 Q1273.15 1562.82 1273.15 1557.67 Q1273.15 1551.65 1277.16 1548.6 Q1281.2 1545.54 1289.19 1545.54 L1297.41 1545.54 L1297.41 1544.97 Q1297.41 1540.93 1294.73 1538.73 Q1292.09 1536.5 1287.28 1536.5 Q1284.23 1536.5 1281.33 1537.23 Q1278.44 1537.97 1275.76 1539.43 L1275.76 1534.02 Q1278.98 1532.78 1282 1532.17 Q1285.02 1531.54 1287.89 1531.54 Q1295.62 1531.54 1299.44 1535.55 Q1303.26 1539.56 1303.26 1547.71 Z" fill="#000000" fill-rule="nonzero" fill-opacity="1" /><path clip-path="url(#clip450)" d="M1321.12 1522.27 L1321.12 1532.4 L1333.18 1532.4 L1333.18 1536.95 L1321.12 1536.95 L1321.12 1556.3 Q1321.12 1560.66 1322.3 1561.9 Q1323.5 1563.14 1327.17 1563.14 L1333.18 1563.14 L1333.18 1568.04 L1327.17 1568.04 Q1320.39 1568.04 1317.81 1565.53 Q1315.23 1562.98 1315.23 1556.3 L1315.23 1536.95 L1310.93 1536.95 L1310.93 1532.4 L1315.23 1532.4 L1315.23 1522.27 L1321.12 1522.27 Z" fill="#000000" fill-rule="nonzero" fill-opacity="1" /><path clip-path="url(#clip450)" d="M1340.88 1532.4 L1346.74 1532.4 L1346.74 1568.04 L1340.88 1568.04 L1340.88 1532.4 M1340.88 1518.52 L1346.74 1518.52 L1346.74 1525.93 L1340.88 1525.93 L1340.88 1518.52 Z" fill="#000000" fill-rule="nonzero" fill-opacity="1" /><path clip-path="url(#clip450)" d="M1372.81 1536.5 Q1368.1 1536.5 1365.36 1540.19 Q1362.62 1543.85 1362.62 1550.25 Q1362.62 1556.65 1365.33 1560.34 Q1368.06 1564 1372.81 1564 Q1377.49 1564 1380.22 1560.31 Q1382.96 1556.62 1382.96 1550.25 Q1382.96 1543.92 1380.22 1540.23 Q1377.49 1536.5 1372.81 1536.5 M1372.81 1531.54 Q1380.45 1531.54 1384.81 1536.5 Q1389.17 1541.47 1389.17 1550.25 Q1389.17 1559 1384.81 1564 Q1380.45 1568.97 1372.81 1568.97 Q1365.14 1568.97 1360.78 1564 Q1356.45 1559 1356.45 1550.25 Q1356.45 1541.47 1360.78 1536.5 Q1365.14 1531.54 1372.81 1531.54 Z" fill="#000000" fill-rule="nonzero" fill-opacity="1" /><path clip-path="url(#clip450)" d="M1428.51 1546.53 L1428.51 1568.04 L1422.65 1568.04 L1422.65 1546.72 Q1422.65 1541.66 1420.68 1539.14 Q1418.7 1536.63 1414.76 1536.63 Q1410.01 1536.63 1407.28 1539.65 Q1404.54 1542.68 1404.54 1547.9 L1404.54 1568.04 L1398.65 1568.04 L1398.65 1532.4 L1404.54 1532.4 L1404.54 1537.93 Q1406.64 1534.72 1409.47 1533.13 Q1412.34 1531.54 1416.06 1531.54 Q1422.21 1531.54 1425.36 1535.36 Q1428.51 1539.14 1428.51 1546.53 Z" fill="#000000" fill-rule="nonzero" fill-opacity="1" /><path clip-path="url(#clip450)" d="M1462.91 1533.45 L1462.91 1538.98 Q1460.43 1537.71 1457.76 1537.07 Q1455.08 1536.44 1452.22 1536.44 Q1447.86 1536.44 1445.66 1537.77 Q1443.5 1539.11 1443.5 1541.79 Q1443.5 1543.82 1445.06 1545 Q1446.62 1546.15 1451.33 1547.2 L1453.33 1547.64 Q1459.57 1548.98 1462.18 1551.43 Q1464.82 1553.85 1464.82 1558.21 Q1464.82 1563.17 1460.88 1566.07 Q1456.96 1568.97 1450.09 1568.97 Q1447.22 1568.97 1444.1 1568.39 Q1441.02 1567.85 1437.58 1566.74 L1437.58 1560.69 Q1440.82 1562.38 1443.98 1563.24 Q1447.13 1564.07 1450.21 1564.07 Q1454.35 1564.07 1456.58 1562.66 Q1458.81 1561.23 1458.81 1558.65 Q1458.81 1556.27 1457.18 1554.99 Q1455.59 1553.72 1450.15 1552.54 L1448.11 1552.07 Q1442.67 1550.92 1440.25 1548.56 Q1437.83 1546.18 1437.83 1542.04 Q1437.83 1537.01 1441.4 1534.27 Q1444.96 1531.54 1451.52 1531.54 Q1454.77 1531.54 1457.63 1532.01 Q1460.49 1532.49 1462.91 1533.45 Z" fill="#000000" fill-rule="nonzero" fill-opacity="1" /><polyline clip-path="url(#clip450)" style="stroke:#000000; stroke-linecap:round; stroke-linejoin:round; stroke-width:4; stroke-opacity:1; fill:none" points="276.876,1423.18 276.876,47.2441 "/>
<polyline clip-path="url(#clip450)" style="stroke:#000000; stroke-linecap:round; stroke-linejoin:round; stroke-width:4; stroke-opacity:1; fill:none" points="276.876,937.555 295.773,937.555 "/>
<polyline clip-path="url(#clip450)" style="stroke:#000000; stroke-linecap:round; stroke-linejoin:round; stroke-width:4; stroke-opacity:1; fill:none" points="276.876,128.181 295.773,128.181 "/>
<path clip-path="url(#clip450)" d="M114.931 957.348 L122.57 957.348 L122.57 930.982 L114.26 932.649 L114.26 928.39 L122.524 926.723 L127.2 926.723 L127.2 957.348 L134.839 957.348 L134.839 961.283 L114.931 961.283 L114.931 957.348 Z" fill="#000000" fill-rule="nonzero" fill-opacity="1" /><path clip-path="url(#clip450)" d="M154.283 929.802 Q150.672 929.802 148.843 933.367 Q147.038 936.908 147.038 944.038 Q147.038 951.144 148.843 954.709 Q150.672 958.251 154.283 958.251 Q157.917 958.251 159.723 954.709 Q161.552 951.144 161.552 944.038 Q161.552 936.908 159.723 933.367 Q157.917 929.802 154.283 929.802 M154.283 926.098 Q160.093 926.098 163.149 930.705 Q166.227 935.288 166.227 944.038 Q166.227 952.765 163.149 957.371 Q160.093 961.954 154.283 961.954 Q148.473 961.954 145.394 957.371 Q142.339 952.765 142.339 944.038 Q142.339 935.288 145.394 930.705 Q148.473 926.098 154.283 926.098 Z" fill="#000000" fill-rule="nonzero" fill-opacity="1" /><path clip-path="url(#clip450)" d="M166.227 920.199 L190.339 920.199 L190.339 923.397 L166.227 923.397 L166.227 920.199 Z" fill="#000000" fill-rule="nonzero" fill-opacity="1" /><path clip-path="url(#clip450)" d="M199.197 930.675 L205.404 930.675 L205.404 909.253 L198.652 910.607 L198.652 907.147 L205.366 905.793 L209.166 905.793 L209.166 930.675 L215.372 930.675 L215.372 933.873 L199.197 933.873 L199.197 930.675 Z" fill="#000000" fill-rule="nonzero" fill-opacity="1" /><path clip-path="url(#clip450)" d="M231.171 908.294 Q228.237 908.294 226.751 911.19 Q225.284 914.068 225.284 919.861 Q225.284 925.635 226.751 928.531 Q228.237 931.409 231.171 931.409 Q234.124 931.409 235.591 928.531 Q237.076 925.635 237.076 919.861 Q237.076 914.068 235.591 911.19 Q234.124 908.294 231.171 908.294 M231.171 905.285 Q235.891 905.285 238.374 909.028 Q240.876 912.752 240.876 919.861 Q240.876 926.951 238.374 930.694 Q235.891 934.418 231.171 934.418 Q226.45 934.418 223.949 930.694 Q221.466 926.951 221.466 919.861 Q221.466 912.752 223.949 909.028 Q226.45 905.285 231.171 905.285 Z" fill="#000000" fill-rule="nonzero" fill-opacity="1" /><path clip-path="url(#clip450)" d="M170.17 147.974 L177.809 147.974 L177.809 121.608 L169.499 123.275 L169.499 119.016 L177.762 117.349 L182.438 117.349 L182.438 147.974 L190.077 147.974 L190.077 151.909 L170.17 151.909 L170.17 147.974 Z" fill="#000000" fill-rule="nonzero" fill-opacity="1" /><path clip-path="url(#clip450)" d="M209.522 120.428 Q205.91 120.428 204.082 123.993 Q202.276 127.534 202.276 134.664 Q202.276 141.77 204.082 145.335 Q205.91 148.877 209.522 148.877 Q213.156 148.877 214.961 145.335 Q216.79 141.77 216.79 134.664 Q216.79 127.534 214.961 123.993 Q213.156 120.428 209.522 120.428 M209.522 116.724 Q215.332 116.724 218.387 121.331 Q221.466 125.914 221.466 134.664 Q221.466 143.391 218.387 147.997 Q215.332 152.58 209.522 152.58 Q203.711 152.58 200.633 147.997 Q197.577 143.391 197.577 134.664 Q197.577 125.914 200.633 121.331 Q203.711 116.724 209.522 116.724 Z" fill="#000000" fill-rule="nonzero" fill-opacity="1" /><path clip-path="url(#clip450)" d="M231.171 98.9201 Q228.237 98.9201 226.751 101.817 Q225.284 104.694 225.284 110.487 Q225.284 116.261 226.751 119.157 Q228.237 122.035 231.171 122.035 Q234.124 122.035 235.591 119.157 Q237.076 116.261 237.076 110.487 Q237.076 104.694 235.591 101.817 Q234.124 98.9201 231.171 98.9201 M231.171 95.9109 Q235.891 95.9109 238.374 99.6536 Q240.876 103.378 240.876 110.487 Q240.876 117.577 238.374 121.32 Q235.891 125.044 231.171 125.044 Q226.45 125.044 223.949 121.32 Q221.466 117.577 221.466 110.487 Q221.466 103.378 223.949 99.6536 Q226.45 95.9109 231.171 95.9109 Z" fill="#000000" fill-rule="nonzero" fill-opacity="1" /><path clip-path="url(#clip450)" d="M33.7671 1089.27 L14.479 1089.27 L14.479 1083.42 L64.0042 1083.42 L64.0042 1089.27 L58.657 1089.27 Q61.8398 1091.12 63.3994 1093.95 Q64.9272 1096.75 64.9272 1100.7 Q64.9272 1107.16 59.771 1111.23 Q54.6147 1115.28 46.212 1115.28 Q37.8093 1115.28 32.6531 1111.23 Q27.4968 1107.16 27.4968 1100.7 Q27.4968 1096.75 29.0564 1093.95 Q30.5842 1091.12 33.7671 1089.27 M46.212 1109.23 Q52.6732 1109.23 56.3653 1106.59 Q60.0256 1103.91 60.0256 1099.27 Q60.0256 1094.62 56.3653 1091.95 Q52.6732 1089.27 46.212 1089.27 Q39.7508 1089.27 36.0905 1091.95 Q32.3984 1094.62 32.3984 1099.27 Q32.3984 1103.91 36.0905 1106.59 Q39.7508 1109.23 46.212 1109.23 Z" fill="#000000" fill-rule="nonzero" fill-opacity="1" /><path clip-path="url(#clip450)" d="M28.3562 1071.35 L28.3562 1065.5 L64.0042 1065.5 L64.0042 1071.35 L28.3562 1071.35 M14.479 1071.35 L14.479 1065.5 L21.895 1065.5 L21.895 1071.35 L14.479 1071.35 Z" fill="#000000" fill-rule="nonzero" fill-opacity="1" /><path clip-path="url(#clip450)" d="M29.4065 1030.52 L34.9447 1030.52 Q33.6716 1033 33.035 1035.67 Q32.3984 1038.35 32.3984 1041.21 Q32.3984 1045.57 33.7352 1047.77 Q35.072 1049.93 37.7456 1049.93 Q39.7826 1049.93 40.9603 1048.37 Q42.1061 1046.81 43.1565 1042.1 L43.6021 1040.1 Q44.9389 1033.86 47.3897 1031.25 Q49.8086 1028.61 54.1691 1028.61 Q59.1344 1028.61 62.0308 1032.55 Q64.9272 1036.47 64.9272 1043.34 Q64.9272 1046.21 64.3543 1049.33 Q63.8132 1052.42 62.6992 1055.85 L56.6518 1055.85 Q58.3387 1052.61 59.198 1049.46 Q60.0256 1046.3 60.0256 1043.22 Q60.0256 1039.08 58.6251 1036.85 Q57.1929 1034.62 54.6147 1034.62 Q52.2276 1034.62 50.9545 1036.25 Q49.6813 1037.84 48.5037 1043.28 L48.0262 1045.32 Q46.8804 1050.76 44.5251 1053.18 Q42.138 1055.6 38.0002 1055.6 Q32.9713 1055.6 30.2341 1052.03 Q27.4968 1048.47 27.4968 1041.91 Q27.4968 1038.67 27.9743 1035.8 Q28.4517 1032.94 29.4065 1030.52 Z" fill="#000000" fill-rule="nonzero" fill-opacity="1" /><path clip-path="url(#clip450)" d="M18.2347 1013.49 L28.3562 1013.49 L28.3562 1001.43 L32.9077 1001.43 L32.9077 1013.49 L52.2594 1013.49 Q56.6199 1013.49 57.8613 1012.31 Q59.1026 1011.1 59.1026 1007.44 L59.1026 1001.43 L64.0042 1001.43 L64.0042 1007.44 Q64.0042 1014.22 61.4897 1016.8 Q58.9434 1019.38 52.2594 1019.38 L32.9077 1019.38 L32.9077 1023.67 L28.3562 1023.67 L28.3562 1019.38 L18.2347 1019.38 L18.2347 1013.49 Z" fill="#000000" fill-rule="nonzero" fill-opacity="1" /><path clip-path="url(#clip450)" d="M46.0847 977.523 Q46.0847 984.62 47.7079 987.358 Q49.3312 990.095 53.2461 990.095 Q56.3653 990.095 58.2114 988.058 Q60.0256 985.989 60.0256 982.456 Q60.0256 977.586 56.5881 974.658 Q53.1188 971.698 47.3897 971.698 L46.0847 971.698 L46.0847 977.523 M43.6657 965.842 L64.0042 965.842 L64.0042 971.698 L58.5933 971.698 Q61.8398 973.703 63.3994 976.695 Q64.9272 979.687 64.9272 984.016 Q64.9272 989.49 61.8716 992.737 Q58.7843 995.951 53.6281 995.951 Q47.6125 995.951 44.5569 991.941 Q41.5014 987.899 41.5014 979.91 L41.5014 971.698 L40.9285 971.698 Q36.8862 971.698 34.6901 974.372 Q32.4621 977.013 32.4621 981.819 Q32.4621 984.875 33.1941 987.771 Q33.9262 990.668 35.3903 993.341 L29.9795 993.341 Q28.7381 990.127 28.1334 987.103 Q27.4968 984.079 27.4968 981.215 Q27.4968 973.48 31.5072 969.661 Q35.5176 965.842 43.6657 965.842 Z" fill="#000000" fill-rule="nonzero" fill-opacity="1" /><path clip-path="url(#clip450)" d="M42.4881 924.146 L64.0042 924.146 L64.0042 930.003 L42.679 930.003 Q37.6183 930.003 35.1038 931.976 Q32.5894 933.949 32.5894 937.896 Q32.5894 942.639 35.6131 945.376 Q38.6368 948.113 43.8567 948.113 L64.0042 948.113 L64.0042 954.001 L28.3562 954.001 L28.3562 948.113 L33.8944 948.113 Q30.6797 946.012 29.0883 943.18 Q27.4968 940.315 27.4968 936.591 Q27.4968 930.448 31.3163 927.297 Q35.1038 924.146 42.4881 924.146 Z" fill="#000000" fill-rule="nonzero" fill-opacity="1" /><path clip-path="url(#clip450)" d="M29.7248 886.811 L35.1993 886.811 Q33.8307 889.294 33.1623 891.808 Q32.4621 894.291 32.4621 896.837 Q32.4621 902.535 36.0905 905.686 Q39.6872 908.837 46.212 908.837 Q52.7369 908.837 56.3653 905.686 Q59.9619 902.535 59.9619 896.837 Q59.9619 894.291 59.2935 891.808 Q58.5933 889.294 57.2247 886.811 L62.6355 886.811 Q63.7814 889.262 64.3543 891.904 Q64.9272 894.514 64.9272 897.474 Q64.9272 905.526 59.8664 910.269 Q54.8057 915.011 46.212 915.011 Q37.491 915.011 32.4939 910.237 Q27.4968 905.431 27.4968 897.092 Q27.4968 894.386 28.0697 891.808 Q28.6108 889.23 29.7248 886.811 Z" fill="#000000" fill-rule="nonzero" fill-opacity="1" /><path clip-path="url(#clip450)" d="M44.7161 846.134 L47.5806 846.134 L47.5806 873.061 Q53.6281 872.679 56.8109 869.433 Q59.9619 866.155 59.9619 860.33 Q59.9619 856.956 59.1344 853.805 Q58.3069 850.622 56.6518 847.503 L62.1899 847.503 Q63.5267 850.654 64.227 853.964 Q64.9272 857.274 64.9272 860.68 Q64.9272 869.21 59.9619 874.207 Q54.9967 879.172 46.5303 879.172 Q37.7774 879.172 32.6531 874.462 Q27.4968 869.719 27.4968 861.699 Q27.4968 854.505 32.1438 850.336 Q36.7589 846.134 44.7161 846.134 M42.9973 851.991 Q38.1912 852.055 35.3266 854.696 Q32.4621 857.306 32.4621 861.635 Q32.4621 866.536 35.2312 869.497 Q38.0002 872.425 43.0292 872.87 L42.9973 851.991 Z" fill="#000000" fill-rule="nonzero" fill-opacity="1" /><path clip-path="url(#clip450)" d="M46.0847 799.601 Q46.0847 806.699 47.7079 809.436 Q49.3312 812.173 53.2461 812.173 Q56.3653 812.173 58.2114 810.136 Q60.0256 808.067 60.0256 804.535 Q60.0256 799.665 56.5881 796.737 Q53.1188 793.776 47.3897 793.776 L46.0847 793.776 L46.0847 799.601 M43.6657 787.92 L64.0042 787.92 L64.0042 793.776 L58.5933 793.776 Q61.8398 795.782 63.3994 798.774 Q64.9272 801.765 64.9272 806.094 Q64.9272 811.569 61.8716 814.815 Q58.7843 818.03 53.6281 818.03 Q47.6125 818.03 44.5569 814.019 Q41.5014 809.977 41.5014 801.988 L41.5014 793.776 L40.9285 793.776 Q36.8862 793.776 34.6901 796.45 Q32.4621 799.092 32.4621 803.898 Q32.4621 806.953 33.1941 809.85 Q33.9262 812.746 35.3903 815.42 L29.9795 815.42 Q28.7381 812.205 28.1334 809.181 Q27.4968 806.158 27.4968 803.293 Q27.4968 795.559 31.5072 791.739 Q35.5176 787.92 43.6657 787.92 Z" fill="#000000" fill-rule="nonzero" fill-opacity="1" /><path clip-path="url(#clip450)" d="M49.9359 776.462 L28.3562 776.462 L28.3562 770.605 L49.7131 770.605 Q54.7739 770.605 57.3202 768.632 Q59.8346 766.659 59.8346 762.712 Q59.8346 757.969 56.8109 755.232 Q53.7872 752.463 48.5673 752.463 L28.3562 752.463 L28.3562 746.607 L64.0042 746.607 L64.0042 752.463 L58.5296 752.463 Q61.7762 754.596 63.3676 757.428 Q64.9272 760.229 64.9272 763.953 Q64.9272 770.096 61.1078 773.279 Q57.2883 776.462 49.9359 776.462 M27.4968 761.725 L27.4968 761.725 Z" fill="#000000" fill-rule="nonzero" fill-opacity="1" /><path clip-path="url(#clip450)" d="M35.1993 686.069 Q31.2526 683.873 29.3747 680.817 Q27.4968 677.761 27.4968 673.624 Q27.4968 668.054 31.4117 665.03 Q35.2948 662.006 42.4881 662.006 L64.0042 662.006 L64.0042 667.895 L42.679 667.895 Q37.5546 667.895 35.072 669.709 Q32.5894 671.523 32.5894 675.247 Q32.5894 679.798 35.6131 682.44 Q38.6368 685.082 43.8567 685.082 L64.0042 685.082 L64.0042 690.97 L42.679 690.97 Q37.5228 690.97 35.072 692.785 Q32.5894 694.599 32.5894 698.386 Q32.5894 702.874 35.6449 705.516 Q38.6686 708.158 43.8567 708.158 L64.0042 708.158 L64.0042 714.046 L28.3562 714.046 L28.3562 708.158 L33.8944 708.158 Q30.616 706.153 29.0564 703.352 Q27.4968 700.551 27.4968 696.699 Q27.4968 692.816 29.4702 690.111 Q31.4436 687.374 35.1993 686.069 Z" fill="#000000" fill-rule="nonzero" fill-opacity="1" /><path clip-path="url(#clip450)" d="M28.3562 650.325 L28.3562 644.469 L64.0042 644.469 L64.0042 650.325 L28.3562 650.325 M14.479 650.325 L14.479 644.469 L21.895 644.469 L21.895 650.325 L14.479 650.325 Z" fill="#000000" fill-rule="nonzero" fill-opacity="1" /><path clip-path="url(#clip450)" d="M42.4881 602.582 L64.0042 602.582 L64.0042 608.439 L42.679 608.439 Q37.6183 608.439 35.1038 610.412 Q32.5894 612.386 32.5894 616.332 Q32.5894 621.075 35.6131 623.812 Q38.6368 626.549 43.8567 626.549 L64.0042 626.549 L64.0042 632.438 L28.3562 632.438 L28.3562 626.549 L33.8944 626.549 Q30.6797 624.449 29.0883 621.616 Q27.4968 618.751 27.4968 615.027 Q27.4968 608.885 31.3163 605.733 Q35.1038 602.582 42.4881 602.582 Z" fill="#000000" fill-rule="nonzero" fill-opacity="1" /><path clip-path="url(#clip450)" d="M28.3562 590.901 L28.3562 585.045 L64.0042 585.045 L64.0042 590.901 L28.3562 590.901 M14.479 590.901 L14.479 585.045 L21.895 585.045 L21.895 590.901 L14.479 590.901 Z" fill="#000000" fill-rule="nonzero" fill-opacity="1" /><path clip-path="url(#clip450)" d="M35.1993 545.036 Q31.2526 542.84 29.3747 539.785 Q27.4968 536.729 27.4968 532.592 Q27.4968 527.022 31.4117 523.998 Q35.2948 520.974 42.4881 520.974 L64.0042 520.974 L64.0042 526.862 L42.679 526.862 Q37.5546 526.862 35.072 528.677 Q32.5894 530.491 32.5894 534.215 Q32.5894 538.766 35.6131 541.408 Q38.6368 544.05 43.8567 544.05 L64.0042 544.05 L64.0042 549.938 L42.679 549.938 Q37.5228 549.938 35.072 551.752 Q32.5894 553.567 32.5894 557.354 Q32.5894 561.842 35.6449 564.484 Q38.6686 567.125 43.8567 567.125 L64.0042 567.125 L64.0042 573.014 L28.3562 573.014 L28.3562 567.125 L33.8944 567.125 Q30.616 565.12 29.0564 562.319 Q27.4968 559.518 27.4968 555.667 Q27.4968 551.784 29.4702 549.079 Q31.4436 546.341 35.1993 545.036 Z" fill="#000000" fill-rule="nonzero" fill-opacity="1" /><path clip-path="url(#clip450)" d="M28.3562 509.293 L28.3562 503.437 L64.0042 503.437 L64.0042 509.293 L28.3562 509.293 M14.479 509.293 L14.479 503.437 L21.895 503.437 L21.895 509.293 L14.479 509.293 Z" fill="#000000" fill-rule="nonzero" fill-opacity="1" /><path clip-path="url(#clip450)" d="M29.4065 468.457 L34.9447 468.457 Q33.6716 470.94 33.035 473.613 Q32.3984 476.287 32.3984 479.151 Q32.3984 483.512 33.7352 485.708 Q35.072 487.872 37.7456 487.872 Q39.7826 487.872 40.9603 486.313 Q42.1061 484.753 43.1565 480.043 L43.6021 478.037 Q44.9389 471.799 47.3897 469.189 Q49.8086 466.547 54.1691 466.547 Q59.1344 466.547 62.0308 470.494 Q64.9272 474.409 64.9272 481.284 Q64.9272 484.148 64.3543 487.268 Q63.8132 490.355 62.6992 493.793 L56.6518 493.793 Q58.3387 490.546 59.198 487.395 Q60.0256 484.244 60.0256 481.157 Q60.0256 477.019 58.6251 474.791 Q57.1929 472.563 54.6147 472.563 Q52.2276 472.563 50.9545 474.186 Q49.6813 475.778 48.5037 481.22 L48.0262 483.257 Q46.8804 488.7 44.5251 491.119 Q42.138 493.538 38.0002 493.538 Q32.9713 493.538 30.2341 489.973 Q27.4968 486.408 27.4968 479.852 Q27.4968 476.605 27.9743 473.741 Q28.4517 470.876 29.4065 468.457 Z" fill="#000000" fill-rule="nonzero" fill-opacity="1" /><path clip-path="url(#clip450)" d="M44.7161 426.73 L47.5806 426.73 L47.5806 453.657 Q53.6281 453.275 56.8109 450.028 Q59.9619 446.75 59.9619 440.925 Q59.9619 437.552 59.1344 434.401 Q58.3069 431.218 56.6518 428.098 L62.1899 428.098 Q63.5267 431.249 64.227 434.56 Q64.9272 437.87 64.9272 441.275 Q64.9272 449.806 59.9619 454.803 Q54.9967 459.768 46.5303 459.768 Q37.7774 459.768 32.6531 455.057 Q27.4968 450.315 27.4968 442.294 Q27.4968 435.101 32.1438 430.931 Q36.7589 426.73 44.7161 426.73 M42.9973 432.586 Q38.1912 432.65 35.3266 435.292 Q32.4621 437.902 32.4621 442.23 Q32.4621 447.132 35.2312 450.092 Q38.0002 453.02 43.0292 453.466 L42.9973 432.586 Z" fill="#000000" fill-rule="nonzero" fill-opacity="1" /><path clip-path="url(#clip450)" d="M49.9359 417.722 L28.3562 417.722 L28.3562 411.866 L49.7131 411.866 Q54.7739 411.866 57.3202 409.893 Q59.8346 407.919 59.8346 403.972 Q59.8346 399.23 56.8109 396.493 Q53.7872 393.724 48.5673 393.724 L28.3562 393.724 L28.3562 387.867 L64.0042 387.867 L64.0042 393.724 L58.5296 393.724 Q61.7762 395.856 63.3676 398.689 Q64.9272 401.49 64.9272 405.214 Q64.9272 411.357 61.1078 414.539 Q57.2883 417.722 49.9359 417.722 M27.4968 402.986 L27.4968 402.986 Z" fill="#000000" fill-rule="nonzero" fill-opacity="1" /><path clip-path="url(#clip450)" d="M33.8307 355.147 Q33.2578 356.134 33.0032 357.312 Q32.7167 358.458 32.7167 359.858 Q32.7167 364.823 35.9632 367.497 Q39.1779 370.139 45.2253 370.139 L64.0042 370.139 L64.0042 376.027 L28.3562 376.027 L28.3562 370.139 L33.8944 370.139 Q30.6479 368.293 29.0883 365.333 Q27.4968 362.373 27.4968 358.139 Q27.4968 357.535 27.5923 356.803 Q27.656 356.07 27.8151 355.179 L33.8307 355.147 Z" fill="#000000" fill-rule="nonzero" fill-opacity="1" /><polyline clip-path="url(#clip452)" style="stroke:#009af9; stroke-linecap:round; stroke-linejoin:round; stroke-width:12; stroke-opacity:1; fill:none" points="335.627,89.7546 374.794,154.212 413.962,294.494 453.13,473.865 492.297,835.078 531.465,1552.21 "/>
<polyline clip-path="url(#clip452)" style="stroke:#e26f46; stroke-linecap:round; stroke-linejoin:round; stroke-width:12; stroke-opacity:1; fill:none" points="335.627,89.7546 374.794,254.207 413.962,291.163 453.13,320.609 492.297,377.83 531.465,413.089 570.632,443.634 609.8,472.117 648.967,525.697 688.135,562.664 727.302,594.78 766.47,624.179 805.637,667.382 844.805,708.902 883.973,744.354 923.14,775.625 962.308,804.626 1001.48,851.306 1040.64,891.378 1079.81,925.732 1118.98,956.371 1158.15,985.063 1197.31,1034.84 1236.48,1073.56 1275.65,1106.93 1314.82,1137.03 1353.98,1165.46 1393.15,1218.07 1432.32,1255.48 1471.49,1287.98 1510.65,1317.61 1549.82,1345.83 1588.99,1400.99 1628.16,1437.18 1667.32,1442.91 1706.49,1495.24 1745.66,1460.43 1784.83,1517.63 1823.99,1474.24 1863.16,1531.97 1902.33,1487.71 1941.5,1443.37 1980.66,1501.15 2019.83,1456.8 2059,1514.58 2098.17,1470.23 2137.33,1528.02 2176.5,1483.67 2215.67,1439.32 2254.84,1497.1 2294,1554.88 "/>
<polyline clip-path="url(#clip452)" style="stroke:#3da44d; stroke-linecap:round; stroke-linejoin:round; stroke-width:12; stroke-opacity:1; fill:none" points="335.627,89.7546 374.794,154.212 413.962,204.76 453.13,307.041 492.297,383.686 531.465,503.58 570.632,758.387 609.8,1081.14 648.967,1524.14 688.135,1956.6 727.302,2692.77 766.47,2682.29 805.637,2710.7 844.805,2710.7 "/>
<path clip-path="url(#clip450)" d="M1517.69 300.469 L2283.56 300.469 L2283.56 93.1086 L1517.69 93.1086  Z" fill="#ffffff" fill-rule="evenodd" fill-opacity="1"/>
<polyline clip-path="url(#clip450)" style="stroke:#000000; stroke-linecap:round; stroke-linejoin:round; stroke-width:4; stroke-opacity:1; fill:none" points="1517.69,300.469 2283.56,300.469 2283.56,93.1086 1517.69,93.1086 1517.69,300.469 "/>
<polyline clip-path="url(#clip450)" style="stroke:#009af9; stroke-linecap:round; stroke-linejoin:round; stroke-width:12; stroke-opacity:1; fill:none" points="1540.75,144.949 1679.15,144.949 "/>
<path clip-path="url(#clip450)" d="M1702.21 127.669 L1708.51 127.669 L1723.83 156.581 L1723.83 127.669 L1728.37 127.669 L1728.37 162.229 L1722.07 162.229 L1706.75 133.317 L1706.75 162.229 L1702.21 162.229 L1702.21 127.669 Z" fill="#000000" fill-rule="nonzero" fill-opacity="1" /><path clip-path="url(#clip450)" d="M1759.66 148.201 L1759.66 150.284 L1740.08 150.284 Q1740.36 154.682 1742.72 156.997 Q1745.1 159.289 1749.34 159.289 Q1751.79 159.289 1754.09 158.687 Q1756.4 158.085 1758.67 156.881 L1758.67 160.909 Q1756.38 161.881 1753.97 162.391 Q1751.56 162.9 1749.09 162.9 Q1742.88 162.9 1739.25 159.289 Q1735.64 155.678 1735.64 149.52 Q1735.64 143.155 1739.06 139.428 Q1742.51 135.678 1748.34 135.678 Q1753.58 135.678 1756.61 139.057 Q1759.66 142.414 1759.66 148.201 M1755.4 146.951 Q1755.36 143.456 1753.44 141.372 Q1751.54 139.289 1748.39 139.289 Q1744.83 139.289 1742.67 141.303 Q1740.54 143.317 1740.22 146.974 L1755.4 146.951 Z" fill="#000000" fill-rule="nonzero" fill-opacity="1" /><path clip-path="url(#clip450)" d="M1764.18 136.303 L1768.44 136.303 L1773.76 156.534 L1779.06 136.303 L1784.09 136.303 L1789.41 156.534 L1794.71 136.303 L1798.97 136.303 L1792.19 162.229 L1787.16 162.229 L1781.59 140.979 L1775.98 162.229 L1770.96 162.229 L1764.18 136.303 Z" fill="#000000" fill-rule="nonzero" fill-opacity="1" /><path clip-path="url(#clip450)" d="M1809.64 128.942 L1809.64 136.303 L1818.41 136.303 L1818.41 139.613 L1809.64 139.613 L1809.64 153.687 Q1809.64 156.858 1810.5 157.761 Q1811.38 158.664 1814.04 158.664 L1818.41 158.664 L1818.41 162.229 L1814.04 162.229 Q1809.11 162.229 1807.23 160.4 Q1805.36 158.548 1805.36 153.687 L1805.36 139.613 L1802.23 139.613 L1802.23 136.303 L1805.36 136.303 L1805.36 128.942 L1809.64 128.942 Z" fill="#000000" fill-rule="nonzero" fill-opacity="1" /><path clip-path="url(#clip450)" d="M1834.06 139.289 Q1830.64 139.289 1828.65 141.974 Q1826.65 144.636 1826.65 149.289 Q1826.65 153.942 1828.62 156.627 Q1830.61 159.289 1834.06 159.289 Q1837.46 159.289 1839.46 156.604 Q1841.45 153.918 1841.45 149.289 Q1841.45 144.682 1839.46 141.997 Q1837.46 139.289 1834.06 139.289 M1834.06 135.678 Q1839.62 135.678 1842.79 139.289 Q1845.96 142.9 1845.96 149.289 Q1845.96 155.655 1842.79 159.289 Q1839.62 162.9 1834.06 162.9 Q1828.48 162.9 1825.31 159.289 Q1822.16 155.655 1822.16 149.289 Q1822.16 142.9 1825.31 139.289 Q1828.48 135.678 1834.06 135.678 Z" fill="#000000" fill-rule="nonzero" fill-opacity="1" /><path clip-path="url(#clip450)" d="M1874.57 146.581 L1874.57 162.229 L1870.31 162.229 L1870.31 146.719 Q1870.31 143.039 1868.88 141.21 Q1867.44 139.382 1864.57 139.382 Q1861.12 139.382 1859.13 141.581 Q1857.14 143.78 1857.14 147.576 L1857.14 162.229 L1852.86 162.229 L1852.86 136.303 L1857.14 136.303 L1857.14 140.331 Q1858.67 137.993 1860.73 136.835 Q1862.81 135.678 1865.52 135.678 Q1869.99 135.678 1872.28 138.456 Q1874.57 141.21 1874.57 146.581 Z" fill="#000000" fill-rule="nonzero" fill-opacity="1" /><path clip-path="url(#clip450)" d="M1908.37 126.257 Q1905.26 131.581 1903.76 136.789 Q1902.26 141.997 1902.26 147.344 Q1902.26 152.692 1903.76 157.946 Q1905.29 163.178 1908.37 168.479 L1904.66 168.479 Q1901.19 163.039 1899.45 157.784 Q1897.74 152.53 1897.74 147.344 Q1897.74 142.182 1899.45 136.951 Q1901.17 131.72 1904.66 126.257 L1908.37 126.257 Z" fill="#000000" fill-rule="nonzero" fill-opacity="1" /><path clip-path="url(#clip450)" d="M1929.76 126.21 L1929.76 129.752 L1925.68 129.752 Q1923.39 129.752 1922.49 130.678 Q1921.61 131.604 1921.61 134.011 L1921.61 136.303 L1928.62 136.303 L1928.62 139.613 L1921.61 139.613 L1921.61 162.229 L1917.33 162.229 L1917.33 139.613 L1913.25 139.613 L1913.25 136.303 L1917.33 136.303 L1917.33 134.497 Q1917.33 130.169 1919.34 128.201 Q1921.35 126.21 1925.73 126.21 L1929.76 126.21 Z" fill="#000000" fill-rule="nonzero" fill-opacity="1" /><path clip-path="url(#clip450)" d="M1933.32 136.303 L1937.58 136.303 L1937.58 162.229 L1933.32 162.229 L1933.32 136.303 M1933.32 126.21 L1937.58 126.21 L1937.58 131.604 L1933.32 131.604 L1933.32 126.21 Z" fill="#000000" fill-rule="nonzero" fill-opacity="1" /><path clip-path="url(#clip450)" d="M1968.04 136.303 L1958.67 148.919 L1968.53 162.229 L1963.51 162.229 L1955.96 152.043 L1948.41 162.229 L1943.39 162.229 L1953.46 148.664 L1944.25 136.303 L1949.27 136.303 L1956.14 145.539 L1963.02 136.303 L1968.04 136.303 Z" fill="#000000" fill-rule="nonzero" fill-opacity="1" /><path clip-path="url(#clip450)" d="M1995.26 148.201 L1995.26 150.284 L1975.68 150.284 Q1975.96 154.682 1978.32 156.997 Q1980.7 159.289 1984.94 159.289 Q1987.39 159.289 1989.69 158.687 Q1992 158.085 1994.27 156.881 L1994.27 160.909 Q1991.98 161.881 1989.57 162.391 Q1987.16 162.9 1984.69 162.9 Q1978.48 162.9 1974.85 159.289 Q1971.24 155.678 1971.24 149.52 Q1971.24 143.155 1974.66 139.428 Q1978.11 135.678 1983.95 135.678 Q1989.18 135.678 1992.21 139.057 Q1995.26 142.414 1995.26 148.201 M1991.01 146.951 Q1990.96 143.456 1989.04 141.372 Q1987.14 139.289 1983.99 139.289 Q1980.43 139.289 1978.27 141.303 Q1976.14 143.317 1975.82 146.974 L1991.01 146.951 Z" fill="#000000" fill-rule="nonzero" fill-opacity="1" /><path clip-path="url(#clip450)" d="M2001.58 126.257 L2005.29 126.257 Q2008.76 131.72 2010.47 136.951 Q2012.21 142.182 2012.21 147.344 Q2012.21 152.53 2010.47 157.784 Q2008.76 163.039 2005.29 168.479 L2001.58 168.479 Q2004.66 163.178 2006.17 157.946 Q2007.69 152.692 2007.69 147.344 Q2007.69 141.997 2006.17 136.789 Q2004.66 131.581 2001.58 126.257 Z" fill="#000000" fill-rule="nonzero" fill-opacity="1" /><polyline clip-path="url(#clip450)" style="stroke:#e26f46; stroke-linecap:round; stroke-linejoin:round; stroke-width:12; stroke-opacity:1; fill:none" points="1540.75,196.789 1679.15,196.789 "/>
<path clip-path="url(#clip450)" d="M1727.77 209.138 L1727.77 199.856 L1720.13 199.856 L1720.13 196.013 L1732.4 196.013 L1732.4 210.851 Q1729.69 212.772 1726.42 213.768 Q1723.16 214.74 1719.46 214.74 Q1711.35 214.74 1706.77 210.018 Q1702.21 205.272 1702.21 196.823 Q1702.21 188.351 1706.77 183.629 Q1711.35 178.884 1719.46 178.884 Q1722.84 178.884 1725.87 179.717 Q1728.92 180.55 1731.49 182.171 L1731.49 187.147 Q1728.9 184.948 1725.98 183.837 Q1723.07 182.726 1719.85 182.726 Q1713.51 182.726 1710.31 186.268 Q1707.14 189.809 1707.14 196.823 Q1707.14 203.814 1710.31 207.356 Q1713.51 210.897 1719.85 210.897 Q1722.33 210.897 1724.27 210.481 Q1726.22 210.041 1727.77 209.138 Z" fill="#000000" fill-rule="nonzero" fill-opacity="1" /><path clip-path="url(#clip450)" d="M1755.78 192.124 Q1755.06 191.708 1754.2 191.522 Q1753.37 191.314 1752.35 191.314 Q1748.74 191.314 1746.79 193.675 Q1744.87 196.013 1744.87 200.411 L1744.87 214.069 L1740.59 214.069 L1740.59 188.143 L1744.87 188.143 L1744.87 192.171 Q1746.21 189.809 1748.37 188.675 Q1750.52 187.518 1753.6 187.518 Q1754.04 187.518 1754.57 187.587 Q1755.1 187.634 1755.75 187.749 L1755.78 192.124 Z" fill="#000000" fill-rule="nonzero" fill-opacity="1" /><path clip-path="url(#clip450)" d="M1772.02 201.036 Q1766.86 201.036 1764.87 202.217 Q1762.88 203.397 1762.88 206.245 Q1762.88 208.513 1764.36 209.856 Q1765.87 211.175 1768.44 211.175 Q1771.98 211.175 1774.11 208.675 Q1776.26 206.152 1776.26 201.985 L1776.26 201.036 L1772.02 201.036 M1780.52 199.277 L1780.52 214.069 L1776.26 214.069 L1776.26 210.133 Q1774.8 212.495 1772.63 213.629 Q1770.45 214.74 1767.3 214.74 Q1763.32 214.74 1760.96 212.518 Q1758.62 210.272 1758.62 206.522 Q1758.62 202.147 1761.54 199.925 Q1764.48 197.703 1770.29 197.703 L1776.26 197.703 L1776.26 197.286 Q1776.26 194.347 1774.32 192.749 Q1772.4 191.129 1768.9 191.129 Q1766.68 191.129 1764.57 191.661 Q1762.46 192.194 1760.52 193.259 L1760.52 189.323 Q1762.86 188.421 1765.06 187.981 Q1767.26 187.518 1769.34 187.518 Q1774.96 187.518 1777.74 190.434 Q1780.52 193.351 1780.52 199.277 Z" fill="#000000" fill-rule="nonzero" fill-opacity="1" /><path clip-path="url(#clip450)" d="M1806.35 192.078 L1806.35 178.05 L1810.61 178.05 L1810.61 214.069 L1806.35 214.069 L1806.35 210.18 Q1805.01 212.495 1802.95 213.629 Q1800.91 214.74 1798.04 214.74 Q1793.34 214.74 1790.38 210.99 Q1787.44 207.24 1787.44 201.129 Q1787.44 195.018 1790.38 191.268 Q1793.34 187.518 1798.04 187.518 Q1800.91 187.518 1802.95 188.652 Q1805.01 189.763 1806.35 192.078 M1791.84 201.129 Q1791.84 205.828 1793.76 208.513 Q1795.71 211.175 1799.08 211.175 Q1802.46 211.175 1804.41 208.513 Q1806.35 205.828 1806.35 201.129 Q1806.35 196.43 1804.41 193.768 Q1802.46 191.083 1799.08 191.083 Q1795.71 191.083 1793.76 193.768 Q1791.84 196.43 1791.84 201.129 Z" fill="#000000" fill-rule="nonzero" fill-opacity="1" /><path clip-path="url(#clip450)" d="M1819.39 188.143 L1823.65 188.143 L1823.65 214.069 L1819.39 214.069 L1819.39 188.143 M1819.39 178.05 L1823.65 178.05 L1823.65 183.444 L1819.39 183.444 L1819.39 178.05 Z" fill="#000000" fill-rule="nonzero" fill-opacity="1" /><path clip-path="url(#clip450)" d="M1854.73 200.041 L1854.73 202.124 L1835.15 202.124 Q1835.43 206.522 1837.79 208.837 Q1840.17 211.129 1844.41 211.129 Q1846.86 211.129 1849.15 210.527 Q1851.47 209.925 1853.74 208.721 L1853.74 212.749 Q1851.45 213.721 1849.04 214.231 Q1846.63 214.74 1844.15 214.74 Q1837.95 214.74 1834.32 211.129 Q1830.71 207.518 1830.71 201.36 Q1830.71 194.995 1834.13 191.268 Q1837.58 187.518 1843.41 187.518 Q1848.64 187.518 1851.68 190.897 Q1854.73 194.254 1854.73 200.041 M1850.47 198.791 Q1850.43 195.296 1848.51 193.212 Q1846.61 191.129 1843.46 191.129 Q1839.89 191.129 1837.74 193.143 Q1835.61 195.157 1835.29 198.814 L1850.47 198.791 Z" fill="#000000" fill-rule="nonzero" fill-opacity="1" /><path clip-path="url(#clip450)" d="M1883.27 198.421 L1883.27 214.069 L1879.02 214.069 L1879.02 198.559 Q1879.02 194.879 1877.58 193.05 Q1876.14 191.222 1873.27 191.222 Q1869.83 191.222 1867.83 193.421 Q1865.84 195.62 1865.84 199.416 L1865.84 214.069 L1861.56 214.069 L1861.56 188.143 L1865.84 188.143 L1865.84 192.171 Q1867.37 189.833 1869.43 188.675 Q1871.52 187.518 1874.22 187.518 Q1878.69 187.518 1880.98 190.296 Q1883.27 193.05 1883.27 198.421 Z" fill="#000000" fill-rule="nonzero" fill-opacity="1" /><path clip-path="url(#clip450)" d="M1895.98 180.782 L1895.98 188.143 L1904.76 188.143 L1904.76 191.453 L1895.98 191.453 L1895.98 205.527 Q1895.98 208.698 1896.84 209.601 Q1897.72 210.504 1900.38 210.504 L1904.76 210.504 L1904.76 214.069 L1900.38 214.069 Q1895.45 214.069 1893.58 212.24 Q1891.7 210.388 1891.7 205.527 L1891.7 191.453 L1888.58 191.453 L1888.58 188.143 L1891.7 188.143 L1891.7 180.782 L1895.98 180.782 Z" fill="#000000" fill-rule="nonzero" fill-opacity="1" /><path clip-path="url(#clip450)" d="M1935.66 178.097 Q1932.56 183.421 1931.05 188.629 Q1929.55 193.837 1929.55 199.184 Q1929.55 204.532 1931.05 209.786 Q1932.58 215.018 1935.66 220.319 L1931.95 220.319 Q1928.48 214.879 1926.75 209.624 Q1925.03 204.37 1925.03 199.184 Q1925.03 194.022 1926.75 188.791 Q1928.46 183.56 1931.95 178.097 L1935.66 178.097 Z" fill="#000000" fill-rule="nonzero" fill-opacity="1" /><path clip-path="url(#clip450)" d="M1962.53 201.129 Q1962.53 196.43 1960.59 193.768 Q1958.67 191.083 1955.29 191.083 Q1951.91 191.083 1949.96 193.768 Q1948.04 196.43 1948.04 201.129 Q1948.04 205.828 1949.96 208.513 Q1951.91 211.175 1955.29 211.175 Q1958.67 211.175 1960.59 208.513 Q1962.53 205.828 1962.53 201.129 M1948.04 192.078 Q1949.39 189.763 1951.42 188.652 Q1953.48 187.518 1956.33 187.518 Q1961.05 187.518 1963.99 191.268 Q1966.95 195.018 1966.95 201.129 Q1966.95 207.24 1963.99 210.99 Q1961.05 214.74 1956.33 214.74 Q1953.48 214.74 1951.42 213.629 Q1949.39 212.495 1948.04 210.18 L1948.04 214.069 L1943.76 214.069 L1943.76 178.05 L1948.04 178.05 L1948.04 192.078 Z" fill="#000000" fill-rule="nonzero" fill-opacity="1" /><path clip-path="url(#clip450)" d="M1985.8 201.036 Q1980.63 201.036 1978.64 202.217 Q1976.65 203.397 1976.65 206.245 Q1976.65 208.513 1978.13 209.856 Q1979.64 211.175 1982.21 211.175 Q1985.75 211.175 1987.88 208.675 Q1990.03 206.152 1990.03 201.985 L1990.03 201.036 L1985.8 201.036 M1994.29 199.277 L1994.29 214.069 L1990.03 214.069 L1990.03 210.133 Q1988.57 212.495 1986.4 213.629 Q1984.22 214.74 1981.07 214.74 Q1977.09 214.74 1974.73 212.518 Q1972.39 210.272 1972.39 206.522 Q1972.39 202.147 1975.31 199.925 Q1978.25 197.703 1984.06 197.703 L1990.03 197.703 L1990.03 197.286 Q1990.03 194.347 1988.09 192.749 Q1986.17 191.129 1982.67 191.129 Q1980.45 191.129 1978.34 191.661 Q1976.24 192.194 1974.29 193.259 L1974.29 189.323 Q1976.63 188.421 1978.83 187.981 Q1981.03 187.518 1983.11 187.518 Q1988.74 187.518 1991.51 190.434 Q1994.29 193.351 1994.29 199.277 Z" fill="#000000" fill-rule="nonzero" fill-opacity="1" /><path clip-path="url(#clip450)" d="M2021.72 189.138 L2021.72 193.12 Q2019.92 192.124 2018.09 191.638 Q2016.28 191.129 2014.43 191.129 Q2010.29 191.129 2008 193.768 Q2005.7 196.384 2005.7 201.129 Q2005.7 205.874 2008 208.513 Q2010.29 211.129 2014.43 211.129 Q2016.28 211.129 2018.09 210.643 Q2019.92 210.133 2021.72 209.138 L2021.72 213.073 Q2019.94 213.907 2018.02 214.323 Q2016.12 214.74 2013.97 214.74 Q2008.11 214.74 2004.66 211.059 Q2001.21 207.379 2001.21 201.129 Q2001.21 194.786 2004.69 191.152 Q2008.18 187.518 2014.25 187.518 Q2016.21 187.518 2018.09 187.935 Q2019.96 188.328 2021.72 189.138 Z" fill="#000000" fill-rule="nonzero" fill-opacity="1" /><path clip-path="url(#clip450)" d="M2028.97 178.05 L2033.25 178.05 L2033.25 199.323 L2045.96 188.143 L2051.4 188.143 L2037.65 200.272 L2051.98 214.069 L2046.42 214.069 L2033.25 201.407 L2033.25 214.069 L2028.97 214.069 L2028.97 178.05 Z" fill="#000000" fill-rule="nonzero" fill-opacity="1" /><path clip-path="url(#clip450)" d="M2060.8 180.782 L2060.8 188.143 L2069.57 188.143 L2069.57 191.453 L2060.8 191.453 L2060.8 205.527 Q2060.8 208.698 2061.65 209.601 Q2062.53 210.504 2065.19 210.504 L2069.57 210.504 L2069.57 214.069 L2065.19 214.069 Q2060.26 214.069 2058.39 212.24 Q2056.51 210.388 2056.51 205.527 L2056.51 191.453 L2053.39 191.453 L2053.39 188.143 L2056.51 188.143 L2056.51 180.782 L2060.8 180.782 Z" fill="#000000" fill-rule="nonzero" fill-opacity="1" /><path clip-path="url(#clip450)" d="M2090.19 192.124 Q2089.48 191.708 2088.62 191.522 Q2087.79 191.314 2086.77 191.314 Q2083.16 191.314 2081.21 193.675 Q2079.29 196.013 2079.29 200.411 L2079.29 214.069 L2075.01 214.069 L2075.01 188.143 L2079.29 188.143 L2079.29 192.171 Q2080.63 189.809 2082.79 188.675 Q2084.94 187.518 2088.02 187.518 Q2088.46 187.518 2088.99 187.587 Q2089.52 187.634 2090.17 187.749 L2090.19 192.124 Z" fill="#000000" fill-rule="nonzero" fill-opacity="1" /><path clip-path="url(#clip450)" d="M2106.44 201.036 Q2101.28 201.036 2099.29 202.217 Q2097.3 203.397 2097.3 206.245 Q2097.3 208.513 2098.78 209.856 Q2100.29 211.175 2102.86 211.175 Q2106.4 211.175 2108.53 208.675 Q2110.68 206.152 2110.68 201.985 L2110.68 201.036 L2106.44 201.036 M2114.94 199.277 L2114.94 214.069 L2110.68 214.069 L2110.68 210.133 Q2109.22 212.495 2107.05 213.629 Q2104.87 214.74 2101.72 214.74 Q2097.74 214.74 2095.38 212.518 Q2093.04 210.272 2093.04 206.522 Q2093.04 202.147 2095.96 199.925 Q2098.9 197.703 2104.71 197.703 L2110.68 197.703 L2110.68 197.286 Q2110.68 194.347 2108.74 192.749 Q2106.81 191.129 2103.32 191.129 Q2101.1 191.129 2098.99 191.661 Q2096.88 192.194 2094.94 193.259 L2094.94 189.323 Q2097.28 188.421 2099.48 187.981 Q2101.68 187.518 2103.76 187.518 Q2109.38 187.518 2112.16 190.434 Q2114.94 193.351 2114.94 199.277 Z" fill="#000000" fill-rule="nonzero" fill-opacity="1" /><path clip-path="url(#clip450)" d="M2142.37 189.138 L2142.37 193.12 Q2140.56 192.124 2138.74 191.638 Q2136.93 191.129 2135.08 191.129 Q2130.94 191.129 2128.64 193.768 Q2126.35 196.384 2126.35 201.129 Q2126.35 205.874 2128.64 208.513 Q2130.94 211.129 2135.08 211.129 Q2136.93 211.129 2138.74 210.643 Q2140.56 210.133 2142.37 209.138 L2142.37 213.073 Q2140.59 213.907 2138.67 214.323 Q2136.77 214.74 2134.62 214.74 Q2128.76 214.74 2125.31 211.059 Q2121.86 207.379 2121.86 201.129 Q2121.86 194.786 2125.33 191.152 Q2128.83 187.518 2134.89 187.518 Q2136.86 187.518 2138.74 187.935 Q2140.61 188.328 2142.37 189.138 Z" fill="#000000" fill-rule="nonzero" fill-opacity="1" /><path clip-path="url(#clip450)" d="M2149.62 178.05 L2153.9 178.05 L2153.9 199.323 L2166.61 188.143 L2172.05 188.143 L2158.3 200.272 L2172.62 214.069 L2167.07 214.069 L2153.9 201.407 L2153.9 214.069 L2149.62 214.069 L2149.62 178.05 Z" fill="#000000" fill-rule="nonzero" fill-opacity="1" /><path clip-path="url(#clip450)" d="M2177.23 188.143 L2181.49 188.143 L2181.49 214.069 L2177.23 214.069 L2177.23 188.143 M2177.23 178.05 L2181.49 178.05 L2181.49 183.444 L2177.23 183.444 L2177.23 178.05 Z" fill="#000000" fill-rule="nonzero" fill-opacity="1" /><path clip-path="url(#clip450)" d="M2211.95 198.421 L2211.95 214.069 L2207.69 214.069 L2207.69 198.559 Q2207.69 194.879 2206.26 193.05 Q2204.82 191.222 2201.95 191.222 Q2198.5 191.222 2196.51 193.421 Q2194.52 195.62 2194.52 199.416 L2194.52 214.069 L2190.24 214.069 L2190.24 188.143 L2194.52 188.143 L2194.52 192.171 Q2196.05 189.833 2198.11 188.675 Q2200.19 187.518 2202.9 187.518 Q2207.37 187.518 2209.66 190.296 Q2211.95 193.05 2211.95 198.421 Z" fill="#000000" fill-rule="nonzero" fill-opacity="1" /><path clip-path="url(#clip450)" d="M2237.51 200.805 Q2237.51 196.175 2235.59 193.629 Q2233.69 191.083 2230.24 191.083 Q2226.81 191.083 2224.89 193.629 Q2222.99 196.175 2222.99 200.805 Q2222.99 205.411 2224.89 207.958 Q2226.81 210.504 2230.24 210.504 Q2233.69 210.504 2235.59 207.958 Q2237.51 205.411 2237.51 200.805 M2241.77 210.851 Q2241.77 217.471 2238.83 220.689 Q2235.89 223.93 2229.82 223.93 Q2227.58 223.93 2225.59 223.582 Q2223.6 223.258 2221.72 222.564 L2221.72 218.42 Q2223.6 219.439 2225.43 219.925 Q2227.25 220.411 2229.15 220.411 Q2233.34 220.411 2235.43 218.212 Q2237.51 216.036 2237.51 211.615 L2237.51 209.508 Q2236.19 211.8 2234.13 212.934 Q2232.07 214.069 2229.2 214.069 Q2224.43 214.069 2221.51 210.434 Q2218.6 206.8 2218.6 200.805 Q2218.6 194.786 2221.51 191.152 Q2224.43 187.518 2229.2 187.518 Q2232.07 187.518 2234.13 188.652 Q2236.19 189.786 2237.51 192.078 L2237.51 188.143 L2241.77 188.143 L2241.77 210.851 Z" fill="#000000" fill-rule="nonzero" fill-opacity="1" /><path clip-path="url(#clip450)" d="M2249.87 178.097 L2253.57 178.097 Q2257.05 183.56 2258.76 188.791 Q2260.49 194.022 2260.49 199.184 Q2260.49 204.37 2258.76 209.624 Q2257.05 214.879 2253.57 220.319 L2249.87 220.319 Q2252.95 215.018 2254.45 209.786 Q2255.98 204.532 2255.98 199.184 Q2255.98 193.837 2254.45 188.629 Q2252.95 183.421 2249.87 178.097 Z" fill="#000000" fill-rule="nonzero" fill-opacity="1" /><polyline clip-path="url(#clip450)" style="stroke:#3da44d; stroke-linecap:round; stroke-linejoin:round; stroke-width:12; stroke-opacity:1; fill:none" points="1540.75,248.629 1679.15,248.629 "/>
<path clip-path="url(#clip450)" d="M1706.89 249.404 L1706.89 262.066 L1714.39 262.066 Q1718.16 262.066 1719.97 260.515 Q1721.79 258.941 1721.79 255.723 Q1721.79 252.483 1719.97 250.955 Q1718.16 249.404 1714.39 249.404 L1706.89 249.404 M1706.89 235.191 L1706.89 245.608 L1713.81 245.608 Q1717.23 245.608 1718.9 244.335 Q1720.59 243.038 1720.59 240.399 Q1720.59 237.784 1718.9 236.487 Q1717.23 235.191 1713.81 235.191 L1706.89 235.191 M1702.21 231.349 L1714.15 231.349 Q1719.5 231.349 1722.4 233.571 Q1725.29 235.793 1725.29 239.89 Q1725.29 243.062 1723.81 244.937 Q1722.33 246.811 1719.46 247.274 Q1722.9 248.015 1724.8 250.376 Q1726.72 252.714 1726.72 256.233 Q1726.72 260.862 1723.58 263.385 Q1720.43 265.909 1714.62 265.909 L1702.21 265.909 L1702.21 231.349 Z" fill="#000000" fill-rule="nonzero" fill-opacity="1" /><path clip-path="url(#clip450)" d="M1734.73 231.349 L1754.59 231.349 L1754.59 235.284 L1739.41 235.284 L1739.41 245.469 L1753.11 245.469 L1753.11 249.404 L1739.41 249.404 L1739.41 265.909 L1734.73 265.909 L1734.73 231.349 Z" fill="#000000" fill-rule="nonzero" fill-opacity="1" /><path clip-path="url(#clip450)" d="M1785.57 260.978 L1785.57 251.696 L1777.93 251.696 L1777.93 247.853 L1790.2 247.853 L1790.2 262.691 Q1787.49 264.612 1784.22 265.608 Q1780.96 266.58 1777.26 266.58 Q1769.15 266.58 1764.57 261.858 Q1760.01 257.112 1760.01 248.663 Q1760.01 240.191 1764.57 235.469 Q1769.15 230.724 1777.26 230.724 Q1780.64 230.724 1783.67 231.557 Q1786.72 232.39 1789.29 234.011 L1789.29 238.987 Q1786.7 236.788 1783.78 235.677 Q1780.87 234.566 1777.65 234.566 Q1771.31 234.566 1768.11 238.108 Q1764.94 241.649 1764.94 248.663 Q1764.94 255.654 1768.11 259.196 Q1771.31 262.737 1777.65 262.737 Q1780.13 262.737 1782.07 262.321 Q1784.02 261.881 1785.57 260.978 Z" fill="#000000" fill-rule="nonzero" fill-opacity="1" /><path clip-path="url(#clip450)" d="M1819.46 232.483 L1819.46 237.043 Q1816.79 235.77 1814.43 235.145 Q1812.07 234.52 1809.87 234.52 Q1806.05 234.52 1803.97 236.001 Q1801.91 237.483 1801.91 240.214 Q1801.91 242.506 1803.27 243.687 Q1804.66 244.844 1808.51 245.562 L1811.33 246.14 Q1816.56 247.136 1819.04 249.659 Q1821.54 252.159 1821.54 256.372 Q1821.54 261.395 1818.16 263.987 Q1814.8 266.58 1808.3 266.58 Q1805.84 266.58 1803.07 266.024 Q1800.31 265.469 1797.35 264.381 L1797.35 259.566 Q1800.2 261.163 1802.93 261.973 Q1805.66 262.784 1808.3 262.784 Q1812.3 262.784 1814.48 261.21 Q1816.65 259.636 1816.65 256.719 Q1816.65 254.173 1815.08 252.737 Q1813.53 251.302 1809.96 250.585 L1807.12 250.029 Q1801.89 248.987 1799.55 246.765 Q1797.21 244.543 1797.21 240.585 Q1797.21 236.001 1800.43 233.362 Q1803.67 230.724 1809.34 230.724 Q1811.77 230.724 1814.29 231.163 Q1816.82 231.603 1819.46 232.483 Z" fill="#000000" fill-rule="nonzero" fill-opacity="1" /><path clip-path="url(#clip450)" d="M1853.95 229.937 Q1850.84 235.261 1849.34 240.469 Q1847.83 245.677 1847.83 251.024 Q1847.83 256.372 1849.34 261.626 Q1850.87 266.858 1853.95 272.159 L1850.24 272.159 Q1846.77 266.719 1845.03 261.464 Q1843.32 256.21 1843.32 251.024 Q1843.32 245.862 1845.03 240.631 Q1846.75 235.4 1850.24 229.937 L1853.95 229.937 Z" fill="#000000" fill-rule="nonzero" fill-opacity="1" /><path clip-path="url(#clip450)" d="M1880.82 252.969 Q1880.82 248.27 1878.88 245.608 Q1876.95 242.923 1873.58 242.923 Q1870.2 242.923 1868.25 245.608 Q1866.33 248.27 1866.33 252.969 Q1866.33 257.668 1868.25 260.353 Q1870.2 263.015 1873.58 263.015 Q1876.95 263.015 1878.88 260.353 Q1880.82 257.668 1880.82 252.969 M1866.33 243.918 Q1867.67 241.603 1869.71 240.492 Q1871.77 239.358 1874.62 239.358 Q1879.34 239.358 1882.28 243.108 Q1885.24 246.858 1885.24 252.969 Q1885.24 259.08 1882.28 262.83 Q1879.34 266.58 1874.62 266.58 Q1871.77 266.58 1869.71 265.469 Q1867.67 264.335 1866.33 262.02 L1866.33 265.909 L1862.05 265.909 L1862.05 229.89 L1866.33 229.89 L1866.33 243.918 Z" fill="#000000" fill-rule="nonzero" fill-opacity="1" /><path clip-path="url(#clip450)" d="M1904.08 252.876 Q1898.92 252.876 1896.93 254.057 Q1894.94 255.237 1894.94 258.085 Q1894.94 260.353 1896.42 261.696 Q1897.93 263.015 1900.5 263.015 Q1904.04 263.015 1906.17 260.515 Q1908.32 257.992 1908.32 253.825 L1908.32 252.876 L1904.08 252.876 M1912.58 251.117 L1912.58 265.909 L1908.32 265.909 L1908.32 261.973 Q1906.86 264.335 1904.69 265.469 Q1902.51 266.58 1899.36 266.58 Q1895.38 266.58 1893.02 264.358 Q1890.68 262.112 1890.68 258.362 Q1890.68 253.987 1893.6 251.765 Q1896.54 249.543 1902.35 249.543 L1908.32 249.543 L1908.32 249.126 Q1908.32 246.187 1906.38 244.589 Q1904.45 242.969 1900.96 242.969 Q1898.74 242.969 1896.63 243.501 Q1894.52 244.034 1892.58 245.099 L1892.58 241.163 Q1894.92 240.261 1897.12 239.821 Q1899.32 239.358 1901.4 239.358 Q1907.02 239.358 1909.8 242.274 Q1912.58 245.191 1912.58 251.117 Z" fill="#000000" fill-rule="nonzero" fill-opacity="1" /><path clip-path="url(#clip450)" d="M1940.01 240.978 L1940.01 244.96 Q1938.2 243.964 1936.38 243.478 Q1934.57 242.969 1932.72 242.969 Q1928.58 242.969 1926.28 245.608 Q1923.99 248.224 1923.99 252.969 Q1923.99 257.714 1926.28 260.353 Q1928.58 262.969 1932.72 262.969 Q1934.57 262.969 1936.38 262.483 Q1938.2 261.973 1940.01 260.978 L1940.01 264.913 Q1938.23 265.747 1936.31 266.163 Q1934.41 266.58 1932.26 266.58 Q1926.4 266.58 1922.95 262.899 Q1919.5 259.219 1919.5 252.969 Q1919.5 246.626 1922.97 242.992 Q1926.47 239.358 1932.53 239.358 Q1934.5 239.358 1936.38 239.775 Q1938.25 240.168 1940.01 240.978 Z" fill="#000000" fill-rule="nonzero" fill-opacity="1" /><path clip-path="url(#clip450)" d="M1947.26 229.89 L1951.54 229.89 L1951.54 251.163 L1964.25 239.983 L1969.69 239.983 L1955.94 252.112 L1970.26 265.909 L1964.71 265.909 L1951.54 253.247 L1951.54 265.909 L1947.26 265.909 L1947.26 229.89 Z" fill="#000000" fill-rule="nonzero" fill-opacity="1" /><path clip-path="url(#clip450)" d="M1979.08 232.622 L1979.08 239.983 L1987.86 239.983 L1987.86 243.293 L1979.08 243.293 L1979.08 257.367 Q1979.08 260.538 1979.94 261.441 Q1980.82 262.344 1983.48 262.344 L1987.86 262.344 L1987.86 265.909 L1983.48 265.909 Q1978.55 265.909 1976.68 264.08 Q1974.8 262.228 1974.8 257.367 L1974.8 243.293 L1971.68 243.293 L1971.68 239.983 L1974.8 239.983 L1974.8 232.622 L1979.08 232.622 Z" fill="#000000" fill-rule="nonzero" fill-opacity="1" /><path clip-path="url(#clip450)" d="M2008.48 243.964 Q2007.76 243.548 2006.91 243.362 Q2006.07 243.154 2005.06 243.154 Q2001.45 243.154 1999.5 245.515 Q1997.58 247.853 1997.58 252.251 L1997.58 265.909 L1993.3 265.909 L1993.3 239.983 L1997.58 239.983 L1997.58 244.011 Q1998.92 241.649 2001.07 240.515 Q2003.23 239.358 2006.31 239.358 Q2006.75 239.358 2007.28 239.427 Q2007.81 239.474 2008.46 239.589 L2008.48 243.964 Z" fill="#000000" fill-rule="nonzero" fill-opacity="1" /><path clip-path="url(#clip450)" d="M2024.73 252.876 Q2019.57 252.876 2017.58 254.057 Q2015.59 255.237 2015.59 258.085 Q2015.59 260.353 2017.07 261.696 Q2018.57 263.015 2021.14 263.015 Q2024.69 263.015 2026.82 260.515 Q2028.97 257.992 2028.97 253.825 L2028.97 252.876 L2024.73 252.876 M2033.23 251.117 L2033.23 265.909 L2028.97 265.909 L2028.97 261.973 Q2027.51 264.335 2025.33 265.469 Q2023.16 266.58 2020.01 266.58 Q2016.03 266.58 2013.67 264.358 Q2011.33 262.112 2011.33 258.362 Q2011.33 253.987 2014.25 251.765 Q2017.19 249.543 2023 249.543 L2028.97 249.543 L2028.97 249.126 Q2028.97 246.187 2027.02 244.589 Q2025.1 242.969 2021.61 242.969 Q2019.38 242.969 2017.28 243.501 Q2015.17 244.034 2013.23 245.099 L2013.23 241.163 Q2015.57 240.261 2017.76 239.821 Q2019.96 239.358 2022.05 239.358 Q2027.67 239.358 2030.45 242.274 Q2033.23 245.191 2033.23 251.117 Z" fill="#000000" fill-rule="nonzero" fill-opacity="1" /><path clip-path="url(#clip450)" d="M2060.66 240.978 L2060.66 244.96 Q2058.85 243.964 2057.02 243.478 Q2055.22 242.969 2053.37 242.969 Q2049.22 242.969 2046.93 245.608 Q2044.64 248.224 2044.64 252.969 Q2044.64 257.714 2046.93 260.353 Q2049.22 262.969 2053.37 262.969 Q2055.22 262.969 2057.02 262.483 Q2058.85 261.973 2060.66 260.978 L2060.66 264.913 Q2058.88 265.747 2056.95 266.163 Q2055.06 266.58 2052.9 266.58 Q2047.05 266.58 2043.6 262.899 Q2040.15 259.219 2040.15 252.969 Q2040.15 246.626 2043.62 242.992 Q2047.12 239.358 2053.18 239.358 Q2055.15 239.358 2057.02 239.775 Q2058.9 240.168 2060.66 240.978 Z" fill="#000000" fill-rule="nonzero" fill-opacity="1" /><path clip-path="url(#clip450)" d="M2067.9 229.89 L2072.19 229.89 L2072.19 251.163 L2084.89 239.983 L2090.33 239.983 L2076.58 252.112 L2090.91 265.909 L2085.36 265.909 L2072.19 253.247 L2072.19 265.909 L2067.9 265.909 L2067.9 229.89 Z" fill="#000000" fill-rule="nonzero" fill-opacity="1" /><path clip-path="url(#clip450)" d="M2095.52 239.983 L2099.78 239.983 L2099.78 265.909 L2095.52 265.909 L2095.52 239.983 M2095.52 229.89 L2099.78 229.89 L2099.78 235.284 L2095.52 235.284 L2095.52 229.89 Z" fill="#000000" fill-rule="nonzero" fill-opacity="1" /><path clip-path="url(#clip450)" d="M2130.24 250.261 L2130.24 265.909 L2125.98 265.909 L2125.98 250.399 Q2125.98 246.719 2124.55 244.89 Q2123.11 243.062 2120.24 243.062 Q2116.79 243.062 2114.8 245.261 Q2112.81 247.46 2112.81 251.256 L2112.81 265.909 L2108.53 265.909 L2108.53 239.983 L2112.81 239.983 L2112.81 244.011 Q2114.34 241.673 2116.4 240.515 Q2118.48 239.358 2121.19 239.358 Q2125.66 239.358 2127.95 242.136 Q2130.24 244.89 2130.24 250.261 Z" fill="#000000" fill-rule="nonzero" fill-opacity="1" /><path clip-path="url(#clip450)" d="M2155.8 252.645 Q2155.8 248.015 2153.87 245.469 Q2151.98 242.923 2148.53 242.923 Q2145.1 242.923 2143.18 245.469 Q2141.28 248.015 2141.28 252.645 Q2141.28 257.251 2143.18 259.798 Q2145.1 262.344 2148.53 262.344 Q2151.98 262.344 2153.87 259.798 Q2155.8 257.251 2155.8 252.645 M2160.06 262.691 Q2160.06 269.311 2157.12 272.529 Q2154.18 275.77 2148.11 275.77 Q2145.87 275.77 2143.87 275.422 Q2141.88 275.098 2140.01 274.404 L2140.01 270.26 Q2141.88 271.279 2143.71 271.765 Q2145.54 272.251 2147.44 272.251 Q2151.63 272.251 2153.71 270.052 Q2155.8 267.876 2155.8 263.455 L2155.8 261.348 Q2154.48 263.64 2152.42 264.774 Q2150.36 265.909 2147.49 265.909 Q2142.72 265.909 2139.8 262.274 Q2136.88 258.64 2136.88 252.645 Q2136.88 246.626 2139.8 242.992 Q2142.72 239.358 2147.49 239.358 Q2150.36 239.358 2152.42 240.492 Q2154.48 241.626 2155.8 243.918 L2155.8 239.983 L2160.06 239.983 L2160.06 262.691 Z" fill="#000000" fill-rule="nonzero" fill-opacity="1" /><path clip-path="url(#clip450)" d="M2168.16 229.937 L2171.86 229.937 Q2175.33 235.4 2177.05 240.631 Q2178.78 245.862 2178.78 251.024 Q2178.78 256.21 2177.05 261.464 Q2175.33 266.719 2171.86 272.159 L2168.16 272.159 Q2171.24 266.858 2172.74 261.626 Q2174.27 256.372 2174.27 251.024 Q2174.27 245.677 2172.74 240.469 Q2171.24 235.261 2168.16 229.937 Z" fill="#000000" fill-rule="nonzero" fill-opacity="1" /></svg>
